<svg width="574" height="592" viewBox="0 0 574 592" fill="none" xmlns="http://www.w3.org/2000/svg">
<path d="M275.595 0.0386471C270.995 0.538647 268.295 6.53866 251.695 70.6387C242.695 105.239 234.395 138.339 233.595 138.239C233.595 138.239 233.495 138.139 233.495 137.839C233.495 133.239 220.995 124.139 182.295 96.8387C143.595 69.5387 132.195 50.1387 129.895 55.8387C127.595 61.5387 150.395 115.039 158.395 137.839C166.395 160.639 185.695 210.639 185.695 210.639C185.695 210.639 137.895 215.239 111.695 222.039C85.495 228.839 -3.30497 236.739 0.0950283 250.439C3.49503 264.139 77.495 295.939 103.695 311.939C129.895 327.939 167.395 338.139 167.395 338.139C167.395 338.139 117.295 387.039 96.795 414.439C76.295 441.739 40.9951 495.239 53.4951 490.739C65.9951 486.239 235.595 420.139 275.495 398.539C275.495 398.539 286.895 505.539 292.595 541.939C298.295 578.339 299.395 604.539 315.395 585.239C331.395 565.939 359.795 462.339 369.995 440.639C380.195 419.039 400.695 359.839 400.695 359.839C400.695 359.839 453.095 387.139 486.095 400.839C519.095 414.539 569.195 452.039 573.695 441.839C578.295 431.639 508.795 338.239 492.895 312.039C476.995 285.839 434.895 225.539 434.895 225.539C434.895 225.539 516.895 108.339 529.395 70.7387C530.295 68.0387 531.295 64.0387 529.195 61.4387C521.395 51.3387 479.395 74.2387 405.295 106.039C379.595 117.039 358.895 125.339 347.295 129.939C340.095 116.339 328.795 94.5387 315.395 67.3387C290.895 17.3387 283.995 -0.961353 275.595 0.0386471Z" fill="#500D59"/>
</svg>
